<svg xmlns="http://www.w3.org/2000/svg" viewBox="0 0 512 512">
  <defs>
    <linearGradient id="bg" x1="0" y1="0" x2="1" y2="1">
      <stop offset="0%" stop-color="#fb7185"/>
      <stop offset="100%" stop-color="#a78bfa"/>
    </linearGradient>
    <linearGradient id="bg2" x1="0" y1="0" x2="1" y2="1">
      <stop offset="0%" stop-color="#fda4af"/>
      <stop offset="100%" stop-color="#c4b5fd"/>
    </linearGradient>
  </defs>

  <!-- Rounded square background -->
  <rect width="512" height="512" rx="112" fill="url(#bg)"/>

  <!-- House body (walls) -->
  <rect x="134" y="268" width="244" height="172" rx="14" fill="white"/>

  <!-- Roof -->
  <polygon points="256,96 404,278 108,278" fill="white"/>

  <!-- Chimney -->
  <rect x="318" y="126" width="36" height="90" rx="8" fill="white"/>

  <!-- Door -->
  <rect x="216" y="328" width="80" height="112" rx="12" fill="url(#bg2)"/>

  <!-- Left window -->
  <rect x="152" y="295" width="58" height="50" rx="9" fill="url(#bg2)"/>

  <!-- Right window -->
  <rect x="302" y="295" width="58" height="50" rx="9" fill="url(#bg2)"/>

  <!-- Heart on door -->
  <path d="M256,378 C256,378 244,366 235,372 C230,376 230,384 235,390 C244,399 256,407 256,407 C256,407 268,399 277,390 C282,384 282,376 277,372 C268,366 256,378 256,378 Z" fill="white"/>
</svg>
